<mxfile host="Electron" agent="Mozilla/5.0 (Windows NT 10.0; Win64; x64) AppleWebKit/537.36 (KHTML, like Gecko) draw.io/24.7.17 Chrome/128.0.6613.36 Electron/32.0.1 Safari/537.36" version="24.7.17">
  <diagram id="C5RBs43oDa-KdzZeNtuy" name="Page-1">
    <mxGraphModel dx="1050" dy="621" grid="1" gridSize="10" guides="1" tooltips="1" connect="1" arrows="1" fold="1" page="1" pageScale="1" pageWidth="827" pageHeight="1169" math="0" shadow="0">
      <root>
        <mxCell id="WIyWlLk6GJQsqaUBKTNV-0" />
        <mxCell id="WIyWlLk6GJQsqaUBKTNV-1" parent="WIyWlLk6GJQsqaUBKTNV-0" />
        <mxCell id="Xc81LlnxIxZEEwq5wGq5-2" value="" style="edgeStyle=orthogonalEdgeStyle;rounded=0;orthogonalLoop=1;jettySize=auto;html=1;" edge="1" parent="WIyWlLk6GJQsqaUBKTNV-1" source="Xc81LlnxIxZEEwq5wGq5-0" target="Xc81LlnxIxZEEwq5wGq5-1">
          <mxGeometry relative="1" as="geometry" />
        </mxCell>
        <mxCell id="Xc81LlnxIxZEEwq5wGq5-0" value="Bắt đầu" style="ellipse;whiteSpace=wrap;html=1;" vertex="1" parent="WIyWlLk6GJQsqaUBKTNV-1">
          <mxGeometry x="60" y="40" width="120" height="80" as="geometry" />
        </mxCell>
        <mxCell id="Xc81LlnxIxZEEwq5wGq5-4" value="" style="edgeStyle=orthogonalEdgeStyle;rounded=0;orthogonalLoop=1;jettySize=auto;html=1;" edge="1" parent="WIyWlLk6GJQsqaUBKTNV-1" source="Xc81LlnxIxZEEwq5wGq5-1" target="Xc81LlnxIxZEEwq5wGq5-3">
          <mxGeometry relative="1" as="geometry" />
        </mxCell>
        <mxCell id="Xc81LlnxIxZEEwq5wGq5-1" value="Nhập số a" style="shape=parallelogram;perimeter=parallelogramPerimeter;whiteSpace=wrap;html=1;fixedSize=1;" vertex="1" parent="WIyWlLk6GJQsqaUBKTNV-1">
          <mxGeometry x="60" y="210" width="120" height="60" as="geometry" />
        </mxCell>
        <mxCell id="Xc81LlnxIxZEEwq5wGq5-8" value="True" style="edgeStyle=orthogonalEdgeStyle;rounded=0;orthogonalLoop=1;jettySize=auto;html=1;" edge="1" parent="WIyWlLk6GJQsqaUBKTNV-1" source="Xc81LlnxIxZEEwq5wGq5-3" target="Xc81LlnxIxZEEwq5wGq5-7">
          <mxGeometry relative="1" as="geometry" />
        </mxCell>
        <mxCell id="Xc81LlnxIxZEEwq5wGq5-10" value="False" style="edgeStyle=orthogonalEdgeStyle;rounded=0;orthogonalLoop=1;jettySize=auto;html=1;" edge="1" parent="WIyWlLk6GJQsqaUBKTNV-1" source="Xc81LlnxIxZEEwq5wGq5-3" target="Xc81LlnxIxZEEwq5wGq5-9">
          <mxGeometry relative="1" as="geometry" />
        </mxCell>
        <mxCell id="Xc81LlnxIxZEEwq5wGq5-3" value="a &amp;lt; 4" style="rhombus;whiteSpace=wrap;html=1;" vertex="1" parent="WIyWlLk6GJQsqaUBKTNV-1">
          <mxGeometry x="80" y="340" width="80" height="80" as="geometry" />
        </mxCell>
        <mxCell id="Xc81LlnxIxZEEwq5wGq5-7" value="Không đạt" style="shape=parallelogram;perimeter=parallelogramPerimeter;whiteSpace=wrap;html=1;fixedSize=1;" vertex="1" parent="WIyWlLk6GJQsqaUBKTNV-1">
          <mxGeometry x="306" y="350" width="120" height="60" as="geometry" />
        </mxCell>
        <mxCell id="Xc81LlnxIxZEEwq5wGq5-12" value="True" style="edgeStyle=orthogonalEdgeStyle;rounded=0;orthogonalLoop=1;jettySize=auto;html=1;" edge="1" parent="WIyWlLk6GJQsqaUBKTNV-1" source="Xc81LlnxIxZEEwq5wGq5-9" target="Xc81LlnxIxZEEwq5wGq5-11">
          <mxGeometry relative="1" as="geometry" />
        </mxCell>
        <mxCell id="Xc81LlnxIxZEEwq5wGq5-14" value="False" style="edgeStyle=orthogonalEdgeStyle;rounded=0;orthogonalLoop=1;jettySize=auto;html=1;" edge="1" parent="WIyWlLk6GJQsqaUBKTNV-1" source="Xc81LlnxIxZEEwq5wGq5-9" target="Xc81LlnxIxZEEwq5wGq5-13">
          <mxGeometry relative="1" as="geometry" />
        </mxCell>
        <mxCell id="Xc81LlnxIxZEEwq5wGq5-9" value="4 &amp;lt;= a &amp;lt;= 6" style="rhombus;whiteSpace=wrap;html=1;" vertex="1" parent="WIyWlLk6GJQsqaUBKTNV-1">
          <mxGeometry x="80" y="500" width="80" height="80" as="geometry" />
        </mxCell>
        <mxCell id="Xc81LlnxIxZEEwq5wGq5-11" value="Trung bình" style="shape=parallelogram;perimeter=parallelogramPerimeter;whiteSpace=wrap;html=1;fixedSize=1;" vertex="1" parent="WIyWlLk6GJQsqaUBKTNV-1">
          <mxGeometry x="296" y="510" width="120" height="60" as="geometry" />
        </mxCell>
        <mxCell id="Xc81LlnxIxZEEwq5wGq5-16" value="True" style="edgeStyle=orthogonalEdgeStyle;rounded=0;orthogonalLoop=1;jettySize=auto;html=1;" edge="1" parent="WIyWlLk6GJQsqaUBKTNV-1" source="Xc81LlnxIxZEEwq5wGq5-13" target="Xc81LlnxIxZEEwq5wGq5-15">
          <mxGeometry relative="1" as="geometry" />
        </mxCell>
        <mxCell id="Xc81LlnxIxZEEwq5wGq5-18" value="False" style="edgeStyle=orthogonalEdgeStyle;rounded=0;orthogonalLoop=1;jettySize=auto;html=1;" edge="1" parent="WIyWlLk6GJQsqaUBKTNV-1" source="Xc81LlnxIxZEEwq5wGq5-13" target="Xc81LlnxIxZEEwq5wGq5-17">
          <mxGeometry relative="1" as="geometry" />
        </mxCell>
        <mxCell id="Xc81LlnxIxZEEwq5wGq5-13" value="6 &amp;lt; a &amp;lt;=8" style="rhombus;whiteSpace=wrap;html=1;" vertex="1" parent="WIyWlLk6GJQsqaUBKTNV-1">
          <mxGeometry x="80" y="660" width="80" height="80" as="geometry" />
        </mxCell>
        <mxCell id="Xc81LlnxIxZEEwq5wGq5-15" value="Khá" style="shape=parallelogram;perimeter=parallelogramPerimeter;whiteSpace=wrap;html=1;fixedSize=1;" vertex="1" parent="WIyWlLk6GJQsqaUBKTNV-1">
          <mxGeometry x="290" y="670" width="120" height="60" as="geometry" />
        </mxCell>
        <mxCell id="Xc81LlnxIxZEEwq5wGq5-20" value="True" style="edgeStyle=orthogonalEdgeStyle;rounded=0;orthogonalLoop=1;jettySize=auto;html=1;" edge="1" parent="WIyWlLk6GJQsqaUBKTNV-1" source="Xc81LlnxIxZEEwq5wGq5-17" target="Xc81LlnxIxZEEwq5wGq5-19">
          <mxGeometry relative="1" as="geometry" />
        </mxCell>
        <mxCell id="Xc81LlnxIxZEEwq5wGq5-17" value="9 &amp;lt; a &amp;lt;= 10" style="rhombus;whiteSpace=wrap;html=1;" vertex="1" parent="WIyWlLk6GJQsqaUBKTNV-1">
          <mxGeometry x="80" y="820" width="80" height="80" as="geometry" />
        </mxCell>
        <mxCell id="Xc81LlnxIxZEEwq5wGq5-22" value="" style="edgeStyle=orthogonalEdgeStyle;rounded=0;orthogonalLoop=1;jettySize=auto;html=1;" edge="1" parent="WIyWlLk6GJQsqaUBKTNV-1" source="Xc81LlnxIxZEEwq5wGq5-19" target="Xc81LlnxIxZEEwq5wGq5-21">
          <mxGeometry relative="1" as="geometry" />
        </mxCell>
        <mxCell id="Xc81LlnxIxZEEwq5wGq5-19" value="Xuất sắc" style="shape=parallelogram;perimeter=parallelogramPerimeter;whiteSpace=wrap;html=1;fixedSize=1;" vertex="1" parent="WIyWlLk6GJQsqaUBKTNV-1">
          <mxGeometry x="280" y="830" width="120" height="60" as="geometry" />
        </mxCell>
        <mxCell id="Xc81LlnxIxZEEwq5wGq5-21" value="Kết thúc" style="ellipse;whiteSpace=wrap;html=1;" vertex="1" parent="WIyWlLk6GJQsqaUBKTNV-1">
          <mxGeometry x="500" y="820" width="150" height="80" as="geometry" />
        </mxCell>
        <mxCell id="Xc81LlnxIxZEEwq5wGq5-23" value="" style="endArrow=classic;html=1;rounded=0;exitX=1;exitY=0.5;exitDx=0;exitDy=0;entryX=0.5;entryY=0;entryDx=0;entryDy=0;" edge="1" parent="WIyWlLk6GJQsqaUBKTNV-1" source="Xc81LlnxIxZEEwq5wGq5-15" target="Xc81LlnxIxZEEwq5wGq5-21">
          <mxGeometry width="50" height="50" relative="1" as="geometry">
            <mxPoint x="390" y="650" as="sourcePoint" />
            <mxPoint x="440" y="600" as="targetPoint" />
            <Array as="points">
              <mxPoint x="575" y="700" />
            </Array>
          </mxGeometry>
        </mxCell>
        <mxCell id="Xc81LlnxIxZEEwq5wGq5-24" value="" style="endArrow=none;html=1;rounded=0;exitX=1;exitY=0.5;exitDx=0;exitDy=0;entryX=0.5;entryY=0;entryDx=0;entryDy=0;" edge="1" parent="WIyWlLk6GJQsqaUBKTNV-1" source="Xc81LlnxIxZEEwq5wGq5-7" target="Xc81LlnxIxZEEwq5wGq5-21">
          <mxGeometry width="50" height="50" relative="1" as="geometry">
            <mxPoint x="390" y="550" as="sourcePoint" />
            <mxPoint x="440" y="500" as="targetPoint" />
            <Array as="points">
              <mxPoint x="575" y="380" />
            </Array>
          </mxGeometry>
        </mxCell>
        <mxCell id="Xc81LlnxIxZEEwq5wGq5-25" value="" style="endArrow=none;html=1;rounded=0;exitX=1;exitY=0.5;exitDx=0;exitDy=0;entryX=0.5;entryY=0;entryDx=0;entryDy=0;" edge="1" parent="WIyWlLk6GJQsqaUBKTNV-1" source="Xc81LlnxIxZEEwq5wGq5-11" target="Xc81LlnxIxZEEwq5wGq5-21">
          <mxGeometry width="50" height="50" relative="1" as="geometry">
            <mxPoint x="400" y="550" as="sourcePoint" />
            <mxPoint x="559" y="990" as="targetPoint" />
            <Array as="points">
              <mxPoint x="575" y="540" />
            </Array>
          </mxGeometry>
        </mxCell>
      </root>
    </mxGraphModel>
  </diagram>
</mxfile>
